# xmcd
#
# Track frame offsets:
#	151
#	21154
#	38744
#	49004
#	68431
#	88161
#	105534
#	118419
#	133094
#	153468
#	165652
#	182767
#	202245
#	217970
#	226178
#	235428
#
# Disc length: 3274 seconds
#
# Revision: 1
# Processed by: cddbd v1.5.2PL0 Copyright (c) Steve Scherf et al.
# Submitted via: audiograbber 1.83.01
#
DISCID=de0cc810
DTITLE=TROTWOOD and TROTWOOD - TROTWOOD and TROTWOOD
DYEAR=1900
DGENRE=Celtic
TTITLE0=AMAZING GRACE
TTITLE1=THE MIDNIGHT SPECIAL
TTITLE2=THE DRUNKEN SAILOR
TTITLE3=THE CASTLE OF DROMORE
TTITLE4=THE FOX
TTITLE5=THE WATER IS WIDE
TTITLE6=MY BONNIEIS OVER THE OCEAN
TTITLE7=DIRTY OLD TOWN
TTITLE8=THE CURRAGH OF KILDARE
TTITLE9=THE REAL OLD MOUNTAIN DEW
TTITLE10=THE REAL OLD MOUNTAIN DEW
TTITLE11=THE BANKS OF THE OHIO
TTITLE12=THE WILD ROVER
TTITLE13=WHEN THAT I WAS
TTITLE14=THE WEAVERS
TTITLE15=DOES YOUR CHEWING-GUM LOSE ITS FALVOUR
EXTD=
EXTT0=
EXTT1=
EXTT2=
EXTT3=
EXTT4=
EXTT5=
EXTT6=
EXTT7=
EXTT8=
EXTT9=
EXTT10=
EXTT11=
EXTT12=
EXTT13=
EXTT14=
EXTT15=
PLAYORDER=
